<svg xmlns="http://www.w3.org/2000/svg" width="200" height="300" viewBox="0 0 200 300"><rect width="100%" height="100%" fill="#DDDDDD"/><path fill="#999999" d="M61.595 150.005q0 2.38-.79 4.41-.79 2.04-2.23 3.52t-3.46 2.32q-2.03.83-4.5.83-2.46 0-4.49-.83-2.02-.84-3.47-2.32t-2.24-3.52q-.8-2.03-.8-4.41 0-2.39.8-4.42.79-2.03 2.24-3.52t3.47-2.32q2.03-.83 4.49-.83 1.65 0 3.1.38 1.46.39 2.67 1.08 1.22.7 2.19 1.7.96 1 1.64 2.23.67 1.23 1.03 2.66.35 1.45.35 3.04m-4.13 0q0-1.79-.48-3.21-.48-1.41-1.36-2.4-.89-1-2.15-1.52-1.27-.53-2.86-.53t-2.86.53q-1.27.52-2.16 1.52-.89.99-1.37 2.4-.48 1.42-.48 3.21 0 1.78.48 3.2t1.37 2.4 2.16 1.51q1.27.52 2.86.52t2.86-.52q1.26-.53 2.15-1.51.88-.98 1.36-2.4t.48-3.2m21.36-7.64h-9.63v6.42h8.13v3.23h-8.13v8.83h-4.05v-21.69h13.68zm16.98 0h-9.63v6.42h8.13v3.23h-8.13v8.83h-4.05v-21.69h13.68zm7.34 15.15h8.67v3.33h-12.71v-21.69h4.04zm15.6-18.36v21.69h-4.05v-21.69zm19.57 0h3.56v21.69h-2.07q-.48 0-.81-.16-.32-.16-.62-.53l-11.32-14.46q.09.99.09 1.83v13.32h-3.56v-21.69h2.12q.25 0 .44.02.19.03.33.09.14.07.28.2.13.13.3.34l11.37 14.52q-.05-.53-.08-1.04t-.03-.94zm22.07 3.21h-9.63v6.02h7.59v3.1h-7.59v6.13h9.63v3.23h-13.68v-21.69h13.68z"/></svg>